<?xml version="1.0" encoding="UTF-8" standalone="no"?>
<!-- Created with Inkscape (http://www.inkscape.org/) -->

<svg
   xmlns:dc="http://purl.org/dc/elements/1.1/"
   xmlns:cc="http://creativecommons.org/ns#"
   xmlns:rdf="http://www.w3.org/1999/02/22-rdf-syntax-ns#"
   xmlns:svg="http://www.w3.org/2000/svg"
   xmlns="http://www.w3.org/2000/svg"
   xmlns:sodipodi="http://sodipodi.sourceforge.net/DTD/sodipodi-0.dtd"
   xmlns:inkscape="http://www.inkscape.org/namespaces/inkscape"
   width="210mm"
   height="297mm"
   viewBox="0 0 210 297"
   version="1.1"
   id="svg30"
   inkscape:version="0.92.4 (5da689c313, 2019-01-14)"
   sodipodi:docname="drawing.svg">
  <defs
     id="defs24" />
  <sodipodi:namedview
     id="base"
     pagecolor="#ffffff"
     bordercolor="#666666"
     borderopacity="1.0"
     inkscape:pageopacity="0.0"
     inkscape:pageshadow="2"
     inkscape:zoom="0.175"
     inkscape:cx="249.31353"
     inkscape:cy="63.358881"
     inkscape:document-units="mm"
     inkscape:current-layer="layer1"
     showgrid="false"
     inkscape:window-width="1920"
     inkscape:window-height="1051"
     inkscape:window-x="-9"
     inkscape:window-y="-9"
     inkscape:window-maximized="1" />
  <metadata
     id="metadata27">
    <rdf:RDF>
      <cc:Work
         rdf:about="">
        <dc:format>image/svg+xml</dc:format>
        <dc:type
           rdf:resource="http://purl.org/dc/dcmitype/StillImage" />
        <dc:title />
      </cc:Work>
    </rdf:RDF>
  </metadata>
  <g
     inkscape:label="Layer 1"
     inkscape:groupmode="layer"
     id="layer1">
    <path
       inkscape:connector-curvature="0"
       id="path7"
       d="m 120.66887,293.10753 c 2.28357,-2.19418 0.82241,-2.35389 -10.92019,-1.19208 -13.696217,1.35564 -26.092559,0.51887 -32.091895,-2.16383 -2.121063,-0.94864 0.945035,-1.56199 8.722413,-1.74414 l 11.993406,-0.2806 -12.509618,-1.2788 c -6.880182,-0.70377 -13.839421,-2.1594 -15.464935,-3.23513 -1.625408,-1.07671 -3.539017,-1.49072 -4.252319,-0.92196 -0.713789,0.569 -5.69779,-2.57691 -11.076457,-6.99052 -12.311702,-10.10248 -17.651222,-20.70905 -16.048,-31.87792 0.877315,-6.10926 0.289703,-9.08096 -2.240224,-11.3313 -2.807258,-2.49774 -2.962978,-3.86562 -0.858653,-7.5484 2.284967,-3.99935 1.955758,-4.8832 -2.968471,-7.97226 -7.631837,-4.78759 -11.993008,-12.15438 -11.993008,-20.25836 0,-7.54348 3.946,-11.41875 9.80221,-9.62661 3.42417,1.04778 3.285619,1.48588 -1.359066,4.2946 -4.862194,2.94025 -4.950866,3.30544 -1.479848,6.09327 3.479429,2.79458 4.273084,2.78845 13.769358,-0.10039 5.542426,-1.68804 15.656209,-6.98708 22.475123,-11.77567 6.818892,-4.78856 15.505647,-9.90517 19.303934,-11.3704 6.391951,-2.4657 7.568296,-2.40259 15.809457,0.84955 8.801703,3.47286 8.999833,3.47516 17.303953,0.19844 10.70418,-4.22352 13.74776,-3.29575 36.68641,11.18435 18.79773,11.86608 27.4333,14.93398 32.53396,11.55801 4.56928,-3.02421 3.69795,-6.81815 -1.56596,-6.81815 -3.86683,0 -4.18166,-0.42849 -1.91361,-2.60844 3.72279,-3.57741 8.12505,-3.27043 10.82637,0.75607 5.74372,8.55882 0.13557,20.26876 -13.75271,28.7168 l -7.65882,4.65869 5.29262,6.21978 c 2.91086,3.42079 5.27594,7.47988 5.25572,9.02037 -0.0212,1.67438 -1.88522,0.49905 -4.63319,-2.92429 -5.31632,-6.62122 -7.36108,-6.43235 -4.11358,0.37959 3.57678,7.50247 2.597,23.69934 -1.90118,31.43092 -7.01378,12.05541 -24.825,22.37355 -48.17486,27.908 -4.59768,1.09008 -5.0286,0.89856 -2.79805,-1.24547 z m -5.63802,-79.76129 c -6.49838,-4.31768 -9.5263,-4.30543 -14.47758,0.0671 -3.90114,3.43775 -3.810304,3.47739 7.83932,3.42012 l 11.78623,-0.0672 -5.14797,-3.42039 z M 32.527348,170.0043 C 23.407009,165.56933 19.488931,160.5619 16.530153,149.55928 15.196102,144.59866 11.231518,137.37684 7.7198493,133.51074 0.05050602,125.06733 -0.00802254,124.7189 6.2414058,124.68864 22.58145,124.61103 23.175477,123.01763 17.333399,94.963891 13.913431,78.541541 13.923707,76.995475 17.512174,67.916288 21.253731,58.45005 21.241346,58.221566 16.778606,54.432756 11.311632,49.791747 11.308242,49.744344 15.858079,41.616833 c 3.741795,-6.68522 4.368421,-8.052412 4.83089,-10.541067 0.149462,-0.807284 5.177024,-4.132664 11.171432,-7.39096 5.994427,-3.258204 10.900788,-6.557117 10.903115,-7.33087 0.0021,-0.773916 -1.222387,-0.911918 -2.721618,-0.30642 -1.499147,0.605753 -0.80839,-0.138025 1.53474,-1.652536 10.415859,-6.7320879 38.934329,-9.546032 56.19283,-5.5447708 15.749652,3.6513418 18.015562,3.3955308 7.146012,-0.8072836 -7.558614,-2.9221798 -7.85923,-3.235966 -2.25217,-2.3516533 3.55873,0.5623009 9.76179,1.3566417 13.78456,1.7674404 4.02274,0.4109845 9.2065,1.5545007 11.51966,2.5418213 2.31312,0.987645 4.20569,1.394865 4.20569,0.905249 0,-0.488758 -3.67992,-2.4384654 -8.1774,-4.3319872 -4.49744,-1.8935682 -7.27754,-3.4774098 -6.17779,-3.5197072 1.09927,-0.036551 8.42384,2.7394012 16.27569,6.1812661 7.85193,3.4421203 16.18245,6.5510523 18.51248,6.9088023 5.74745,0.881849 14.01668,7.285837 18.93004,14.657929 3.34508,5.019091 4.07344,5.420176 4.1529,2.287079 0.0476,-2.089778 -0.91234,-5.915533 -2.14518,-8.501713 -1.233,-2.586063 -1.79616,-5.057315 -1.2518,-5.491582 0.54417,-0.434151 2.77982,3.25395 4.96746,8.195757 3.79127,8.564428 4.04207,8.755176 5.35498,4.073991 1.01635,-3.621553 1.44513,-2.422455 1.63541,4.566606 0.20092,7.37179 0.84001,9.014171 2.87478,7.390937 4.61324,-3.679133 16.54556,-2.557669 19.43003,1.825973 2.49845,3.796989 2.44723,3.822781 -1.7305,0.86965 -5.27201,-3.72693 -8.05909,-3.831471 -11.59377,-0.435197 -2.26801,2.179448 -1.95318,2.608534 1.91363,2.608534 6.07742,0 5.84146,1.054497 -1.36842,6.115111 -5.18995,3.643001 -5.43793,4.21678 -1.8427,4.264322 3.88593,0.04647 3.92108,0.260575 0.54538,3.235199 -4.58358,4.0393 -4.6263,6.198415 -0.0939,4.811798 2.67837,-0.819529 3.15759,-0.347642 2.01578,1.987793 -1.47633,3.019169 -5.37736,37.709006 -5.47796,48.713086 -0.0476,4.70724 0.76873,5.65591 4.8549,5.6756 2.69848,0.009 6.99813,0.47121 9.55475,1.01885 l 4.6485,0.99434 -4.94798,7.24194 c -2.72141,3.98304 -6.09861,11.22029 -7.50489,16.08298 -5.25059,18.15526 -15.50747,25.07029 -37.18579,25.07029 -19.27951,0 -33.00237,-7.3759 -40.44286,-21.73801 -4.21777,-8.14141 -9.21173,-13.04304 -13.28876,-13.04304 -1.59601,0 -5.969771,4.89118 -9.719773,10.86908 -3.749939,5.97806 -8.42516,12.32198 -10.389316,14.09744 -10.789905,9.75416 -38.156204,13.13089 -51.9716,6.4131 z m 33.539201,-0.18288 c 16.202411,-4.87156 28.095336,-22.14938 22.56949,-32.78846 -3.632264,-6.99329 -15.701511,-10.58282 -35.555474,-10.57469 -24.83063,0.009 -36.529265,7.96815 -33.198769,22.58314 3.977884,17.45587 25.313423,27.05539 46.184753,20.78001 z M 175.25936,168.1984 c 10.35324,-5.03424 15.77175,-13.14347 15.78146,-23.61817 0.0127,-13.08059 -5.99418,-16.99401 -27.40579,-17.85632 -20.84961,-0.83951 -29.56113,0.53114 -36.64881,5.7706 -7.22259,5.33816 -7.41054,12.85627 -0.58773,23.52114 9.13311,14.2769 32.54791,20.11496 48.86117,12.18275 z m -41.99685,-42.65086 c 7.19601,-1.38581 21.623,-2.53172 32.05975,-2.54673 l 18.97601,-0.0209 -5.53343,-8.50566 -5.53355,-8.50599 3.85776,-9.759834 c 3.60245,-9.113949 3.62053,-10.156711 0.272,-15.755717 -1.97185,-3.297775 -6.02302,-7.269688 -9.00234,-8.826513 -8.40052,-4.389659 -28.93856,-6.021468 -40.54828,-3.221791 -17.57574,4.238483 -38.113901,3.008201 -60.837444,-3.644348 -9.332634,-2.732291 -9.90597,-2.690186 -21.138043,1.551038 -6.349885,2.397639 -12.581897,5.904217 -13.848786,7.792232 -3.310637,4.933162 -2.837758,15.704178 1.093454,24.904915 3.137149,7.342628 3.104317,8.463648 -0.429937,14.656928 -2.104947,3.68843 -4.120063,7.09744 -4.477862,7.57579 -0.357457,0.47795 7.93112,1.00103 18.420212,1.1628 10.489099,0.16173 23.977421,1.43327 29.974177,2.82744 14.305615,3.32587 40.332739,3.47398 56.696139,0.32292 z"
       style="fill:#ffffff;stroke-width:1.94735932;opacity:1" />
  </g>
</svg>
